<svg xmlns="http://www.w3.org/2000/svg" xmlns:xlink="http://www.w3.org/1999/xlink" viewBox="0 0 272.51 81.38"><defs><style>.cls-1{fill:url(#Sky);}.cls-2{fill:url(#linear-gradient);}.cls-3{fill:url(#linear-gradient-2);}.cls-4{fill:url(#linear-gradient-3);}</style><linearGradient id="Sky" x1="9.66" y1="-63.1" x2="91.03" y2="-63.1" gradientTransform="translate(86.91 103.79)" gradientUnits="userSpaceOnUse"><stop offset="0" stop-color="#cce0f4"/><stop offset="0.06" stop-color="#c3dcf2"/><stop offset="0.17" stop-color="#a9d2ee"/><stop offset="0.31" stop-color="#80c2e7"/><stop offset="0.46" stop-color="#47acde"/><stop offset="0.57" stop-color="#1e9cd7"/><stop offset="0.87" stop-color="#0075be"/><stop offset="0.99" stop-color="#005b97"/></linearGradient><linearGradient id="linear-gradient" x1="46.09" y1="5.49" x2="46.09" y2="75.88" gradientUnits="userSpaceOnUse"><stop offset="0" stop-color="#fff"/><stop offset="0.08" stop-color="#fff6ff"/><stop offset="0.22" stop-color="#ffdcff"/><stop offset="0.4" stop-color="#ffb2ff"/><stop offset="0.62" stop-color="#ff79ff"/><stop offset="0.85" stop-color="#ff30ff"/><stop offset="0.99" stop-color="#f0f"/></linearGradient><linearGradient id="linear-gradient-2" x1="121.18" y1="6.02" x2="121.18" y2="75.88" xlink:href="#linear-gradient"/><linearGradient id="linear-gradient-3" x1="219.07" y1="6.02" x2="219.07" y2="75.88" xlink:href="#linear-gradient"/></defs><title>SVGLogo1</title><g id="Background"><rect class="cls-1" x="96.57" y="-95.57" width="81.38" height="272.51" transform="translate(95.57 177.94) rotate(-90)"/></g><g id="A"><path class="cls-2" d="M23.65,33.14,35.26,5.49H56.35L86.73,75.88H41.46L28.84,45.58H22.41l12.5,30.3H5.45l15-35.39h6.25Z" transform="translate(-1 0)"/></g><g id="T"><path class="cls-3" d="M80.89,37.52V6h80.57V37.43L141.4,9.13h-.18V75.88H101.13V9.13H101Z" transform="translate(-1 0)"/></g><g id="K"><path class="cls-4" d="M169.08,75.88V6h39.56V45.67l24.5-20.86,35.92,51.07H226.85L208.64,47.13h-.18V75.88Zm64.06-51.07L220.16,6h34l.09.8Z" transform="translate(-1 0)"/></g></svg>
